<svg xmlns="http://www.w3.org/2000/svg" id="uuid-e9f7b816-3361-4ae4-99ad-a32397401ee4" viewBox="0 0 321.21 91.54">
  <style>
    @media (prefers-color-scheme: dark) {
      .dark-mode {
        fill: #ffffff; /* Color for dark mode */
      }
    }
    @media (prefers-color-scheme: light) {
      .dark-mode {
        fill: #1f3344; /* Color for light mode */
      }
    }
  </style>
  <g id="uuid-1dbf9cc8-f2b4-401c-96b5-1422d9225959">
    <path id="uuid-da98656c-8508-4b08-8e36-4bf324fe09e5" d="M288.08,0h9.64V90.77h-9.64V0Z" class="dark-mode"/>
    <path id="uuid-85c240e7-ae72-4cdd-9a26-48c7f979cc8c" d="M175.12,49.68c-11.38-1.38-15.17-2.71-15.17-7.8s5.43-8.43,13.83-8.43c7.28,0,12.86,3.61,14.22,9.07l13.33-3c-2.66-11.2-12.67-17.85-27.54-17.98h-.37c-15.78,0-26.81,8.69-26.81,21.12,0,15.18,13.07,18.04,27.63,19.83l.71,.09c9.65,1.14,14.96,1.76,14.96,8.49,0,5.04-5.9,8.56-14.35,8.56-9.11,0-15.47-4.18-16.5-10.72l-13.46,2.95c2.2,12.24,13.32,19.68,29.96,19.68s27.68-8.74,27.68-21.25c0-15.89-13.31-18.82-28.14-20.61Z" class="dark-mode"/>
    <path id="uuid-77b96469-8876-413a-ab2e-822f7b138920" d="M122.37,90.77l-16.38-26.21-8.57,9.24v16.97h-20.17V0h20.17V48.76l24.42-26.48h23.23l-25.05,27.35,25.71,41.13h-23.36Z" class="dark-mode"/>
    <path id="uuid-5a3d8536-19e8-48e4-99cf-ae82739a84ed" d="M311.57,0h9.64V90.77h-9.64V0Z" class="dark-mode"/>
    <path id="uuid-3c3c8a36-1e57-4e57-87d3-bf3b743d920b" d="M63.76,74.77v-27.95c0-16.32-10.8-25.31-30.41-25.31-15.53,0-27.05,6.7-30.69,17.4l19.47,4.11c1.28-3.43,5.22-5.47,10.71-5.47,6.44,0,10.29,3.08,10.29,8.25v1.74h-11.57C11.21,47.54,0,55.81,0,70.81c0,12.78,9.89,20.72,25.82,20.72,9.55,0,15.6-3.67,20.18-9.34h.73l2.71,8.57h19.06l-4.74-15.99Zm-34.5,.84c-5.09,0-8.25-2.33-8.25-6.08,0-6.18,6.53-7.1,10.42-7.1h11.7c-.2,8.14-5.5,13.18-13.86,13.18h0Z" class="dark-mode"/>
    <path id="uuid-3249dd85-63fe-49fe-bf67-da1ad7112849" d="M275.55,59.99c.29-1.88,.44-3.79,.44-5.69-.04-2-.23-4-.57-5.97-.08-.52-.17-1.03-.27-1.53v-.03h0c-3.05-15.75-14.72-25.24-31.79-25.24-9.49,0-17.64,3.38-23.56,9.77-5.89,6.35-9,15.08-9,25.23,0,20.94,13.65,35,33.97,35,13.47,0,24.18-7.26,28.52-18.87l-12.73-3.79c-2.5,6.5-8.58,10.36-16.57,10.36-11.11,0-18.62-7.52-19.21-19.18h50.75v-.05h0Zm-49.92-11.6c1.61-8.57,9.13-14.76,17.85-14.69,9.85,0,16.55,5.48,18.01,14.69h-35.87Z" class="dark-mode"/>
  </g>
</svg>
